# xmcd
#
# Track frame offsets: 
#        150
#        13700
#        32670
#        42852
#        63185
#        75225
#        90285
#        104770
#        120432
#
# Disc length: 1852 seconds
#
# Revision: 3
# Processed by: cddbd v1.4PL0 Copyright (c) Steve Scherf et al.
# Submitted via: ExactAudioCopy v0.95a3
#
DISCID=5d073a09
DTITLE=Helmet - Strap It On
DYEAR=1990
DGENRE=Rock
TTITLE0=Repetition
TTITLE1=Rude
TTITLE2=Bad Moon
TTITLE3=Sinatra
TTITLE4=FBLA
TTITLE5=Blacktop
TTITLE6=Distracted
TTITLE7=Make Room
TTITLE8=Murder
EXTD=Helmet:\n\nJohn Stanier: Drums\nHenry Bogdan: Bass\nPeter Mengede
EXTD=: Guitar\nPage Hamilton: Guitar, Vocals\n\nAmphetamine Reptile Re
EXTD=cords ARR89202-2
EXTT0=
EXTT1=
EXTT2=
EXTT3=
EXTT4=
EXTT5=
EXTT6=
EXTT7=
EXTT8=
PLAYORDER=
